<svg width="40" height="40" viewBox="0 0 40 40" fill="none" xmlns="http://www.w3.org/2000/svg">
	<path
		d="M35.548 13.3337H30.668L29.628 7.12033C29.4185 6.18024 28.9583 5.31445 28.2963 4.61487C27.6342 3.9153 26.7951 3.40805 25.868 3.14699C24.9362 2.8488 23.9662 2.68713 22.988 2.66699H17.0147C16.0366 2.68713 15.0665 2.8488 14.1347 3.14699C13.2076 3.40805 12.3685 3.9153 11.7065 4.61487C11.0445 5.31445 10.5843 6.18024 10.3747 7.12033L9.3347 13.3337H4.4547C4.24467 13.3324 4.03732 13.3807 3.84952 13.4748C3.66172 13.5689 3.49881 13.706 3.37404 13.8749C3.24927 14.0439 3.16618 14.2399 3.13154 14.4471C3.0969 14.6542 3.11169 14.8666 3.1747 15.067L8.18804 31.867C8.44327 32.6786 8.95062 33.3876 9.63638 33.8912C10.3221 34.3947 11.1506 34.6665 12.0014 34.667H28.0014C28.8476 34.6608 29.67 34.3865 30.3504 33.8833C31.0309 33.3802 31.5342 32.6743 31.788 31.867L36.8014 15.067C36.8637 14.8688 36.8789 14.6587 36.8457 14.4536C36.8124 14.2485 36.7317 14.054 36.61 13.8856C36.4882 13.7172 36.3288 13.5796 36.1444 13.4838C35.96 13.388 35.7558 13.3365 35.548 13.3337ZM12.0547 13.3337L13.0147 7.54699C13.1199 7.07452 13.3641 6.64432 13.7157 6.31168C14.0674 5.97905 14.5105 5.75917 14.988 5.68033C15.644 5.47233 16.3267 5.35766 17.0147 5.33366H22.988C23.6867 5.35677 24.3712 5.47233 25.0414 5.68033C25.519 5.75917 25.962 5.97905 26.3137 6.31168C26.6653 6.64432 26.9095 7.07452 27.0147 7.54699L27.948 13.3337H11.948H12.0547Z"
		fill="white" />
</svg>