<svg width="26" height="27" viewBox="0 0 26 27" fill="none" xmlns="http://www.w3.org/2000/svg">
	<path
		d="M20.3535 4.64016C20.8612 4.13248 21.6847 4.13248 22.1924 4.64016C22.6998 5.14775 22.6997 5.97039 22.1924 6.47805L14.8379 13.8316L22.1924 21.1861C22.7001 21.6937 22.7 22.5172 22.1924 23.0249C21.6847 23.5326 20.8612 23.5326 20.3535 23.0249L12.999 15.6704L5.6455 23.0249C5.13784 23.5323 4.31522 23.5324 3.80761 23.0249C3.29993 22.5172 3.29993 21.6937 3.80761 21.1861L11.1611 13.8316L3.80761 6.47805C3.30009 5.97036 3.29998 5.14779 3.80761 4.64016C4.31524 4.13256 5.13781 4.13265 5.6455 4.64016L12.999 11.9937L20.3535 4.64016Z"
		fill="white" />
</svg>