<svg width="29" height="40" viewBox="0 0 29 40" fill="none" xmlns="http://www.w3.org/2000/svg">
	<g clip-path="url(#clip0_6626_3684)">
		<path
			d="M9.01262 40C8.43659 39.664 8.48709 38.8333 9.20325 38.7488C9.58246 38.7039 11.3239 38.8281 11.4682 38.7373L12.072 37.2784L16.7688 37.2617C17.2294 37.3149 17.2562 38.3814 17.5097 38.7373C17.654 38.827 19.3944 38.7039 19.7747 38.7488C20.4918 38.8333 20.5413 39.665 19.9653 40H9.01262Z"
			fill="white" />
		<path
			d="M11.4818 19.5342H4.88686C4.85698 19.5342 4.71272 19.6249 4.68799 19.6656L4.65707 33.7493C4.76527 33.9142 4.90747 34.0112 5.11356 33.9903H23.8668C24.0718 34.0112 24.215 33.9142 24.3232 33.7493L24.2923 19.6656C24.2676 19.6249 24.1244 19.5342 24.0935 19.5342H17.4986C17.7387 19.1324 17.9839 18.74 18.1818 18.3122C18.2951 18.068 18.3538 17.5514 18.6166 17.5034L24.9322 17.5128C25.6845 17.5587 26.3831 18.1682 26.4491 18.9456L26.446 34.5716C26.3656 35.2019 25.9544 35.707 25.3516 35.8844L3.95843 35.9407C3.335 35.9011 2.79402 35.4857 2.6075 34.8867L2.53125 18.9445C2.60441 18.1327 3.33397 17.5347 4.11712 17.5034H10.3637C10.6265 17.5504 10.6852 18.0669 10.7986 18.3111C10.9964 18.739 11.2417 19.1313 11.4818 19.5331V19.5342Z"
			fill="white" />
		<path
			d="M15.3374 10.2381H16.9954C17.2695 10.2381 17.4704 10.8204 17.4972 11.0583C17.6167 12.1488 17.5879 14.4739 17.5003 15.5925C17.4889 15.7428 17.4549 15.8753 17.4189 16.0183H11.5566C11.5453 15.8461 11.4886 15.6885 11.4763 15.5132C11.3938 14.3758 11.3567 12.0821 11.4794 10.9801C11.5061 10.739 11.7205 10.2381 11.9802 10.2381H13.6382C13.3033 9.81652 11.6473 9.2718 11.5134 8.83664C11.4258 8.55384 11.4289 6.19439 11.4835 5.83019C11.5814 5.1832 12.1213 5.56409 12.483 5.74567C13.1435 6.07647 13.7773 6.56067 14.4605 6.86226C14.7768 6.88939 16.4482 5.64653 16.9521 5.50983C17.3921 5.39086 17.4622 5.56618 17.4982 5.97733C17.5343 6.38849 17.5467 8.62897 17.4364 8.8909C17.2664 9.29371 15.6671 9.83531 15.3343 10.2381H15.3374Z"
			fill="white" />
		<path
			d="M4.77099 5.08216C5.36247 5.06233 6.48875 4.3402 6.92154 4.97467L8.31162 10.1152L2.65547 11.7128C2.52976 11.6815 2.37519 10.9813 2.3247 10.8018C1.92798 9.39512 1.5838 7.96546 1.23963 6.54625C1.3097 5.81786 2.45247 5.78237 2.99655 5.58932C3.07075 5.56323 3.17379 5.57993 3.15112 5.47453L0.799631 4.8484C0.493586 3.77877 0.0649185 2.64444 0 1.54038L0.115411 1.4235C1.11907 1.47463 2.10624 1.9171 3.10372 2.09867L5.3532 0.00219727L5.5428 0.0428954C5.66336 0.125335 5.70458 0.248473 5.75404 0.377872C5.87873 0.70137 6.50421 3.10673 6.46918 3.3217L4.77099 5.08216Z"
			fill="white" />
		<path
			d="M25.8302 5.47442C25.8075 5.57982 25.9105 5.56208 25.9847 5.58921C26.5278 5.78331 27.6716 5.81775 27.7416 6.54614L26.3722 11.6908L20.6934 10.1641L22.0597 4.97456C22.4925 4.34009 23.6188 5.06222 24.2103 5.08205L22.5121 3.32159C22.6079 2.84469 23.1458 0.262972 23.3942 0.0782651C23.4715 0.0208703 23.5281 -0.00834887 23.6281 0.00208655C23.9403 0.0344363 25.4891 1.82307 25.8786 2.09752C26.1578 2.15283 27.9632 1.50061 28.4331 1.4307C28.5743 1.40982 28.8721 1.35869 28.9596 1.48496C29.0256 1.66862 29.004 1.86898 28.9751 2.05682C28.9287 2.35006 28.2826 4.7429 28.1837 4.84829L25.8322 5.47442H25.8302Z"
			fill="white" />
		<path
			d="M6.10503 23.9305C6.35749 23.6749 7.796 23.7155 8.18448 23.7729C9.0614 23.9013 9.77344 24.7027 9.86206 25.5887C9.9785 26.7523 10.0754 28.6974 8.99133 29.3914C8.4287 29.7514 7.08602 29.7806 6.42653 29.693C6.06588 29.645 5.95562 29.3611 5.92573 29.0282C5.82372 27.9054 5.82475 25.6138 5.92573 24.4899C5.94016 24.325 5.99168 24.0453 6.10606 23.9295L6.10503 23.9305ZM7.16331 28.4386C7.61258 28.4063 8.22982 28.592 8.50702 28.1203C8.69353 27.8021 8.69353 25.7953 8.53381 25.4499C8.31844 24.9835 7.73212 24.9553 7.29108 25.0148L7.16331 25.1191V28.4386Z"
			fill="white" />
		<path
			d="M10.4996 23.9305C10.752 23.6749 12.1905 23.7155 12.579 23.7729C13.4559 23.9013 14.168 24.7027 14.2566 25.5887C14.3514 26.5446 14.3978 28.3301 13.7568 29.0647C13.1159 29.7994 11.7206 29.813 10.8211 29.693C10.4604 29.645 10.3501 29.3611 10.3203 29.0282C10.2183 27.9054 10.2193 25.6138 10.3203 24.4899C10.3347 24.325 10.3862 24.0453 10.5006 23.9295L10.4996 23.9305ZM11.5578 28.4386C12.3173 28.4574 12.9366 28.5764 13.0273 27.6226C13.0674 27.1989 13.0778 25.716 12.9015 25.3988C12.6718 24.9855 11.9216 24.853 11.5578 25.1191V28.4386Z"
			fill="white" />
		<path
			d="M16.3994 23.773C17.4711 23.6238 18.517 24.4252 18.6468 25.5189C18.7251 26.1847 18.7262 27.9566 18.484 28.5389C17.8688 30.0197 15.7038 30.1125 14.9671 28.6985C14.6311 28.0536 14.6095 25.7714 14.8403 25.0827C15.0547 24.4399 15.7337 23.8659 16.4004 23.773H16.3994ZM16.6292 25.019C16.3386 25.0482 16.0552 25.3373 15.9882 25.6222C15.9089 25.9603 15.9079 27.5684 15.9913 27.895C16.1892 28.6683 17.2454 28.6213 17.4031 27.8355C17.4711 27.4985 17.4628 25.8705 17.3701 25.5617C17.2773 25.2528 16.9445 24.9867 16.6292 25.019Z"
			fill="white" />
		<path
			d="M22.877 23.9305C23.1325 24.1893 23.1088 24.7247 22.7739 24.9156C22.2391 25.2204 20.4111 24.6193 20.3534 25.5157C20.307 26.2357 21.1664 26.0541 21.5899 26.1314C23.5519 26.4872 23.4375 29.3736 21.6837 29.6711C21.4034 29.7191 19.6125 29.7337 19.4281 29.6491C19.0674 29.4843 19.0303 28.8362 19.3281 28.592C19.8598 28.1569 21.8197 28.8686 21.8125 27.9325C21.8074 27.1885 20.7017 27.4212 20.1999 27.2271C18.5676 26.5978 18.8572 24.0328 20.643 23.773C21.0438 23.7145 22.6225 23.6738 22.877 23.9305Z"
			fill="white" />
		<path d="M25.828 12.895C24.0958 15.7752 20.617 14.9132 20.584 11.4883L25.828 12.895Z" fill="white" />
		<path
			d="M8.39611 11.4883C8.38169 12.7864 7.74384 14.2578 6.39498 14.5772C4.91937 14.9268 3.99712 14.0095 3.15215 12.9325L8.39611 11.4883Z"
			fill="white" />
		<path d="M17.1906 17.3467C16.3466 20.5848 12.635 20.5848 11.791 17.3467H17.1906Z" fill="white" />
	</g>
	<defs>
		<clipPath id="clip0_6626_3684">
			<rect width="29" height="40" fill="white" />
		</clipPath>
	</defs>
</svg>