<svg width="40" height="40" viewBox="0 0 40 40" fill="none" xmlns="http://www.w3.org/2000/svg">
	<path
		d="M28.3332 6.66687C30.1765 6.66687 31.5915 8.07187 32.6399 9.58354L32.9949 10.1185L33.3199 10.6519C33.4232 10.8263 33.5221 10.9974 33.6165 11.1652C34.9282 13.5102 36.0699 16.5719 36.8249 19.5969C37.5749 22.5985 37.9899 25.7335 37.7249 28.1985C37.4582 30.6735 36.1832 33.3335 33.3332 33.3335C30.7765 33.3335 28.7615 31.9669 27.1249 30.6319L25.2749 29.0802C23.7365 27.8202 22.0532 26.6669 19.9999 26.6669C17.9465 26.6669 16.2615 27.8202 14.7265 29.0802L12.8765 30.6302C11.2365 31.9669 9.22155 33.3335 6.66655 33.3335C3.81488 33.3335 2.53988 30.6735 2.27488 28.1985C2.01155 25.7319 2.42488 22.5985 3.17488 19.5969C3.92988 16.5719 5.07155 13.5102 6.38321 11.1652L6.67988 10.6502L7.00488 10.1185L7.35988 9.58354C8.40821 8.07187 9.82322 6.66687 11.6665 6.66687C12.5165 6.66687 13.3615 6.87354 14.1915 7.11687L15.1799 7.4202C15.3432 7.4702 15.5054 7.51798 15.6665 7.56354C17.1082 7.97687 18.5832 8.33354 19.9999 8.33354C21.4165 8.33354 22.8916 7.97687 24.3332 7.56354L25.8082 7.11854C26.6382 6.87354 27.4832 6.66687 28.3332 6.66687ZM14.1665 13.3335C13.0615 13.3335 12.0017 13.7725 11.2203 14.5539C10.4389 15.3353 9.99988 16.3951 9.99988 17.5002C9.99988 18.6053 10.4389 19.6651 11.2203 20.4465C12.0017 21.2279 13.0615 21.6669 14.1665 21.6669C15.2716 21.6669 16.3314 21.2279 17.1128 20.4465C17.8942 19.6651 18.3332 18.6053 18.3332 17.5002C18.3332 16.3951 17.8942 15.3353 17.1128 14.5539C16.3314 13.7725 15.2716 13.3335 14.1665 13.3335ZM25.8332 13.3335C25.3912 13.3335 24.9673 13.5091 24.6547 13.8217C24.3421 14.1343 24.1665 14.5582 24.1665 15.0002V15.8335H23.3332C22.8912 15.8335 22.4673 16.0091 22.1547 16.3217C21.8421 16.6343 21.6665 17.0582 21.6665 17.5002C21.6665 17.9422 21.8421 18.3662 22.1547 18.6787C22.4673 18.9913 22.8912 19.1669 23.3332 19.1669H24.1665V20.0002C24.1665 20.4422 24.3421 20.8662 24.6547 21.1787C24.9673 21.4913 25.3912 21.6669 25.8332 21.6669C26.2752 21.6669 26.6992 21.4913 27.0117 21.1787C27.3243 20.8662 27.4999 20.4422 27.4999 20.0002V19.1669H28.3332C28.7752 19.1669 29.1992 18.9913 29.5117 18.6787C29.8243 18.3662 29.9999 17.9422 29.9999 17.5002C29.9999 17.0582 29.8243 16.6343 29.5117 16.3217C29.1992 16.0091 28.7752 15.8335 28.3332 15.8335H27.4999V15.0002C27.4999 14.5582 27.3243 14.1343 27.0117 13.8217C26.6992 13.5091 26.2752 13.3335 25.8332 13.3335ZM14.1665 16.6669C14.3876 16.6669 14.5995 16.7547 14.7558 16.9109C14.9121 17.0672 14.9999 17.2792 14.9999 17.5002C14.9999 17.7212 14.9121 17.9332 14.7558 18.0895C14.5995 18.2457 14.3876 18.3335 14.1665 18.3335C13.9455 18.3335 13.7336 18.2457 13.5773 18.0895C13.421 17.9332 13.3332 17.7212 13.3332 17.5002C13.3332 17.2792 13.421 17.0672 13.5773 16.9109C13.7336 16.7547 13.9455 16.6669 14.1665 16.6669Z"
		fill="white" />
</svg>