<svg width="37" height="40" viewBox="0 0 37 40" fill="none" xmlns="http://www.w3.org/2000/svg">
	<path fill-rule="evenodd" clip-rule="evenodd"
		d="M17.057 0.256128C17.9874 -0.0853762 19.0126 -0.0853762 19.943 0.256128L34.3319 5.53976C35.1157 5.82746 35.7911 6.34258 36.2679 7.01627C36.7447 7.68996 37.0001 8.49011 37 9.30976V20.1045C37.0001 23.4687 36.0434 26.7666 34.2372 29.6284C32.431 32.4902 29.8466 34.803 26.7736 36.3076L19.8793 39.6811C19.451 39.8908 18.9788 40 18.5 40C18.0212 40 17.549 39.8908 17.1207 39.6811L10.2264 36.3056C7.15341 34.801 4.56902 32.4882 2.76281 29.6264C0.956596 26.7645 -7.3295e-05 23.4667 8.02e-07 20.1025V9.31177C-0.000522131 8.49178 0.254695 7.69118 0.731507 7.0171C1.20832 6.34301 1.88399 5.82758 2.66811 5.53976L17.057 0.256128ZM20.5556 19.4523C21.3393 19.0092 21.9517 18.3253 22.298 17.5066C22.6443 16.6879 22.7051 15.7802 22.4708 14.9242C22.2366 14.0683 21.7205 13.3119 21.0026 12.7724C20.2846 12.233 19.405 11.9405 18.5 11.9405C17.595 11.9405 16.7154 12.233 15.9974 12.7724C15.2795 13.3119 14.7634 14.0683 14.5292 14.9242C14.2949 15.7802 14.3557 16.6879 14.702 17.5066C15.0483 18.3253 15.6607 19.0092 16.4444 19.4523V26.0302C16.4444 26.564 16.661 27.076 17.0465 27.4535C17.432 27.8309 17.9548 28.043 18.5 28.043C19.0452 28.043 19.568 27.8309 19.9535 27.4535C20.339 27.076 20.5556 26.564 20.5556 26.0302V19.4523Z"
		fill="white" />
</svg>