<svg width="20" height="17" viewBox="0 0 20 17" fill="none" xmlns="http://www.w3.org/2000/svg">
	<path
		d="M0.0680001 1.9808L8.943 10.8568C9.20555 11.1195 9.55624 11.2755 9.92719 11.2945C10.2981 11.3136 10.6629 11.1943 10.951 10.9598L11.065 10.8568L19.934 1.9868C19.963 2.0968 19.982 2.2088 19.992 2.3238L20 2.4988V14.4988C20.0002 15.0034 19.8096 15.4894 19.4665 15.8593C19.1234 16.2293 18.6532 16.456 18.15 16.4938L18 16.4988H2C1.49542 16.499 1.00943 16.3084 0.639452 15.9653C0.269471 15.6222 0.0428433 15.152 0.00500011 14.6488L0 14.4988V2.4988C0 2.3788 0.00999997 2.2628 0.03 2.1488L0.0680001 1.9808ZM18 0.498802C18.121 0.498802 18.24 0.508802 18.355 0.529802L18.525 0.568802L10.005 9.0888L1.482 0.566802C1.592 0.536802 1.706 0.516802 1.822 0.506802L2 0.498802H18Z"
		fill="white" />
</svg>