<svg width="27" height="23" viewBox="0 0 27 23" fill="none" xmlns="http://www.w3.org/2000/svg">
	<path
		d="M19.0754 14.3042V6.72647H24.0154C25.4454 6.72647 26.6154 7.82647 26.6154 9.17091V16.5042C26.6154 17.8487 25.4454 18.9487 24.0154 18.9487H22.7154V22.6154L18.8154 18.9487H12.3154C10.8854 18.9487 9.71536 17.8487 9.71536 16.5042V14.2798C9.80089 14.2965 9.88799 14.3051 9.97536 14.3055H19.0754V14.3042ZM3.21536 0.615356H14.9154C16.3454 0.615356 17.5154 1.71536 17.5154 3.0598V12.8376H8.41536L4.51536 16.5042V12.8376H3.21536C1.78536 12.8376 0.615356 11.7388 0.615356 10.3931V3.0598C0.615356 1.71536 1.78536 0.615356 3.21536 0.615356Z"
		fill="#B0220C" />
</svg>