<svg width="26" height="27" viewBox="0 0 26 27" fill="none" xmlns="http://www.w3.org/2000/svg">
	<path
		d="M21.0404 17.4712L18.2125 17.1483C17.88 17.1092 17.5429 17.146 17.2267 17.256C16.9104 17.3659 16.6232 17.546 16.3866 17.7829L14.338 19.8315C11.1776 18.2237 8.60877 15.6548 7.00102 12.4944L9.06073 10.4347C9.53947 9.95599 9.77327 9.28798 9.69534 8.60883L9.37246 5.80317C9.30958 5.25995 9.049 4.75886 8.64039 4.39543C8.23179 4.032 7.70374 3.83163 7.15689 3.83252H5.23079C3.97271 3.83252 2.92616 4.87908 3.00409 6.13717C3.59417 15.6452 11.1984 23.2384 20.6953 23.8284C21.9533 23.9064 22.9999 22.8598 22.9999 21.6017V19.6756C23.011 18.5511 22.1649 17.6048 21.0404 17.4712Z"
		fill="white" />
</svg>