<svg width="40" height="40" viewBox="0 0 40 40" fill="none" xmlns="http://www.w3.org/2000/svg">
	<path fill-rule="evenodd" clip-rule="evenodd"
		d="M36.8219 15.7198C36.7053 15.7144 36.5886 15.7124 36.4719 15.7138H31.6017C27.6175 15.7138 24.2054 18.8757 24.2054 22.9995C24.2054 27.1234 27.6175 30.2853 31.6037 30.2853H36.4699C36.5925 30.2866 36.7092 30.2839 36.8199 30.2773C37.642 30.2239 38.4167 29.874 39.0002 29.2924C39.5836 28.7108 39.9361 27.9372 39.992 27.1154C40 26.9974 40 26.8714 40 26.7554V19.2437C40 19.1277 40 19.0017 39.992 18.8837C39.9361 18.0622 39.5839 17.2888 39.0009 16.7073C38.4179 16.1258 37.6436 15.7756 36.8219 15.7218M31.1757 24.9435C32.2017 24.9435 33.0357 24.0755 33.0357 23.0015C33.0357 21.9276 32.2017 21.0596 31.1757 21.0596C30.1496 21.0596 29.3176 21.9276 29.3176 23.0015C29.3176 24.0755 30.1476 24.9435 31.1757 24.9435Z"
		fill="white" />
	<path fill-rule="evenodd" clip-rule="evenodd"
		d="M36.4694 33.2002C36.5364 33.1979 36.603 33.2113 36.6639 33.2394C36.7248 33.2675 36.7782 33.3096 36.8198 33.3621C36.8615 33.4146 36.8902 33.4762 36.9037 33.5419C36.9171 33.6076 36.915 33.6755 36.8974 33.7402C36.5094 35.1241 35.8954 36.3041 34.9093 37.2961C33.4673 38.75 31.6372 39.396 29.3771 39.702C27.181 40 24.3769 40 20.8328 40H16.7586C13.2165 40 10.4104 40 8.21432 39.702C5.95423 39.396 4.12416 38.75 2.6821 37.2961C1.24005 35.8461 0.600023 34.0002 0.296011 31.7243C0 29.5084 0 26.6805 0 23.1106V22.8906C0 19.3207 0 16.4908 0.296011 14.2789C0.600023 12.001 1.24005 10.1611 2.6801 8.70312C4.12216 7.25117 5.95223 6.6032 8.21232 6.29921C10.4104 6.00122 13.2165 6.00122 16.7586 6.00122H20.8328C24.3749 6.00122 27.181 6.00122 29.3771 6.29921C31.6372 6.6052 33.4673 7.25117 34.9093 8.70312C35.8954 9.69708 36.5094 10.877 36.8974 12.263C36.9146 12.3276 36.9165 12.3953 36.9028 12.4607C36.8892 12.5261 36.8604 12.5874 36.8188 12.6397C36.7772 12.692 36.7239 12.7338 36.6633 12.7618C36.6026 12.7898 36.5362 12.8032 36.4694 12.801H31.6032C26.135 12.801 21.3168 17.1548 21.3168 23.0006C21.3168 28.8464 26.137 33.2002 31.6052 33.2002H36.4694ZM7.22828 13.7729C7.03785 13.7737 6.84945 13.812 6.67382 13.8856C6.49819 13.9592 6.33878 14.0667 6.20469 14.2019C6.07059 14.337 5.96445 14.4973 5.8923 14.6736C5.82016 14.8498 5.78343 15.0385 5.78422 15.2289C5.78422 16.0349 6.43025 16.6868 7.22828 16.6868H14.9406C15.7406 16.6868 16.3866 16.0349 16.3866 15.2289C16.3877 14.8441 16.236 14.4747 15.9649 14.2017C15.6937 13.9287 15.3253 13.7745 14.9406 13.7729H7.22828Z"
		fill="white" />
	<path
		d="M11.5545 4.04854L15.4707 1.16265C16.4927 0.407502 17.73 0 19.0008 0C20.2716 0 21.5089 0.407502 22.5309 1.16265L26.4691 4.06454C24.821 4.00054 22.9809 4.00054 20.9669 4.00054H16.6267C14.7826 4.00054 13.0886 4.00054 11.5545 4.04854Z"
		fill="white" />
</svg>