<svg width="41" height="40" viewBox="0 0 41 40" fill="none" xmlns="http://www.w3.org/2000/svg">
	<path
		d="M21.8274 27.9927C30.003 26.3794 36.7545 20.2904 39.0018 12.2474L28.0395 0.996793C19.8923 2.97441 13.8458 9.81091 12.0101 17.8822L21.8274 27.9927ZM27.9307 15.0246C26.7574 14.7833 25.3995 13.3309 25.0305 12.2096C23.7625 8.30167 28.3329 5.03245 31.6069 7.53996C35.2594 10.3361 32.6572 15.9898 27.9307 15.0294L27.9307 15.0246Z"
		fill="white" />
	<path
		d="M2.01706 38.8413C2.71255 38.9974 3.1289 38.8886 3.69192 38.5006C4.68074 37.8146 11.1058 31.3945 11.7918 30.4009C12.8894 28.8207 11.3092 27.108 9.70532 28.1252L1.49662 36.3101C0.848443 37.0576 0.928874 38.5952 2.01233 38.8413L2.01706 38.8413Z"
		fill="white" />
	<path
		d="M12.7394 8.20771C8.29199 8.3875 4.55431 11.9453 3.59387 16.2081L8.94017 17.4666C9.43222 15.8248 9.89588 14.1831 10.5583 12.5935C11.2206 11.0038 12.0581 9.69802 12.7441 8.20771L12.7394 8.20771Z"
		fill="white" />
	<path
		d="M31.7971 27.2592C29.9661 28.1534 28.2487 29.1801 26.3184 29.8756C25.093 30.3203 23.7635 30.8313 22.4577 30.8786L23.7966 36.4045C27.979 35.4015 31.6315 31.6829 31.7971 27.2592Z"
		fill="white" />
	<path d="M39.9904 8.39771L40.0945 -6.71805e-05L31.6067 0.0141239L39.9904 8.39771Z" fill="white" />
	<path
		d="M1.0626 32.3646C1.34175 32.4261 1.68713 32.4592 1.96627 32.4024C2.8794 32.2274 7.0003 27.2029 8.17365 26.4128C8.8928 24.9556 7.56805 23.3659 6.07771 24.3169C5.47212 24.7048 0.807116 29.3745 0.352917 30.0226C-0.276337 30.9263 -0.0776254 32.1043 1.05787 32.3646L1.0626 32.3646Z"
		fill="white" />
	<path
		d="M15.544 32.0809C14.9242 31.3476 13.9921 31.6078 13.3108 32.1188C11.4373 33.5145 9.67724 36.1403 7.78002 37.64C7.02302 39.3574 8.49916 40.7389 10.0794 39.5609C10.8742 38.9647 15.104 34.7824 15.6007 34.0349C15.9982 33.4388 16.0171 32.6487 15.544 32.0857L15.544 32.0809Z"
		fill="white" />
	<path
		d="M18.4554 28.7886L11.3207 21.7298C10.7671 21.1526 10.1426 22.6192 10.3555 23.0639L16.8326 29.5645C17.2016 30.0376 18.6825 29.2002 18.4554 28.7933L18.4554 28.7886Z"
		fill="white" />
</svg>