<svg width="40" height="40" viewBox="0 0 40 40" fill="none" xmlns="http://www.w3.org/2000/svg">
	<path
		d="M20.1414 5.83326C18.5748 5.83298 17.0434 6.29747 15.741 7.16794C14.4385 8.03841 13.4236 9.27572 12.8247 10.7233C12.7619 10.875 12.6698 11.013 12.5537 11.1292C12.4375 11.2454 12.2997 11.3375 12.1479 11.4005C11.9962 11.4634 11.8335 11.4958 11.6693 11.4958C11.505 11.4959 11.3423 11.4636 11.1905 11.4008C11.0388 11.3379 10.9008 11.2458 10.7846 11.1297C10.6684 11.0136 10.5763 10.8757 10.5133 10.724C10.4504 10.5722 10.418 10.4096 10.418 10.2453C10.4179 10.081 10.4502 9.91838 10.513 9.76659C11.3015 7.86217 12.637 6.23437 14.3508 5.0891C16.0645 3.94382 18.0794 3.33252 20.1405 3.33252C22.2017 3.33252 24.2166 3.94382 25.9303 5.0891C27.644 6.23437 28.9796 7.86217 29.768 9.76659C29.8949 10.0729 29.8949 10.4171 29.768 10.7234C29.6411 11.0297 29.3977 11.2731 29.0914 11.3999C28.785 11.5268 28.4409 11.5268 28.1346 11.3999C27.8283 11.273 27.5849 11.0296 27.458 10.7233C26.8591 9.27572 25.8442 8.03841 24.5418 7.16794C23.2393 6.29747 21.7079 5.83298 20.1414 5.83326Z"
		fill="white" />
	<path
		d="M20.1398 10C19.3289 9.99982 18.5397 10.2625 17.8907 10.7487C17.2416 11.2349 16.7676 11.9184 16.5398 12.6967C16.447 13.015 16.2316 13.2833 15.9409 13.4427C15.6502 13.6021 15.3081 13.6395 14.9898 13.5467C14.6716 13.4539 14.4032 13.2384 14.2438 12.9477C14.0844 12.6571 14.047 12.315 14.1398 11.9967C14.5195 10.6994 15.3094 9.56012 16.3911 8.7496C17.4729 7.93907 18.7881 7.50098 20.1398 7.50098C21.4915 7.50098 22.8068 7.93907 23.8886 8.7496C24.9703 9.56012 25.7602 10.6994 26.1398 11.9967C26.2327 12.315 26.1953 12.6571 26.0359 12.9477C25.8765 13.2384 25.6081 13.4539 25.2898 13.5467C24.9716 13.6395 24.6295 13.6021 24.3388 13.4427C24.0481 13.2833 23.8327 13.015 23.7398 12.6967C23.5121 11.9184 23.0381 11.2349 22.389 10.7487C21.74 10.2625 20.9508 9.99982 20.1398 10Z"
		fill="white" />
	<path
		d="M21.806 12.9167C21.806 13.3587 21.6304 13.7826 21.3178 14.0952C21.0053 14.4077 20.5814 14.5833 20.1393 14.5833C19.6973 14.5833 19.2734 14.4077 18.9608 14.0952C18.6483 13.7826 18.4727 13.3587 18.4727 12.9167C18.4727 12.4746 18.6483 12.0507 18.9608 11.7382C19.2734 11.4256 19.6973 11.25 20.1393 11.25C20.5814 11.25 21.0053 11.4256 21.3178 11.7382C21.6304 12.0507 21.806 12.4746 21.806 12.9167Z"
		fill="white" />
	<path fill-rule="evenodd" clip-rule="evenodd"
		d="M6.0837 7.2967C5.9151 7.01722 5.64387 6.81477 5.32798 6.73262C5.01209 6.65047 4.67659 6.69514 4.3932 6.85708C4.10981 7.01902 3.901 7.28538 3.8114 7.59924C3.72179 7.9131 3.75851 8.24956 3.9137 8.5367L10.2254 19.5834H9.9987C6.85536 19.5834 5.28536 19.5834 4.3087 20.56C3.33203 21.5367 3.33203 23.1067 3.33203 26.25C3.33203 29.3934 3.33203 30.9634 4.3087 31.94C5.28536 32.9167 6.85536 32.9167 9.9987 32.9167H29.9987C33.142 32.9167 34.712 32.9167 35.6887 31.94C36.6654 30.9634 36.6654 29.3934 36.6654 26.25C36.6654 23.1067 36.6654 21.5367 35.6887 20.56C34.712 19.5834 33.142 19.5834 29.9987 19.5834H29.772L36.0837 8.5367C36.2389 8.24956 36.2756 7.9131 36.186 7.59924C36.0964 7.28538 35.8876 7.01902 35.6042 6.85708C35.3208 6.69514 34.9853 6.65047 34.6694 6.73262C34.3535 6.81477 34.0823 7.01722 33.9137 7.2967L27.247 18.9634L26.8804 19.5834H13.132L12.7487 18.9634L6.0837 7.2967ZM9.9987 27.9167C10.4407 27.9167 10.8646 27.7411 11.1772 27.4285C11.4898 27.116 11.6654 26.6921 11.6654 26.25C11.6654 25.808 11.4898 25.3841 11.1772 25.0715C10.8646 24.759 10.4407 24.5834 9.9987 24.5834C9.55667 24.5834 9.13275 24.759 8.82019 25.0715C8.50763 25.3841 8.33203 25.808 8.33203 26.25C8.33203 26.6921 8.50763 27.116 8.82019 27.4285C9.13275 27.7411 9.55667 27.9167 9.9987 27.9167ZM16.6654 26.25C16.6654 26.6921 16.4898 27.116 16.1772 27.4285C15.8646 27.7411 15.4407 27.9167 14.9987 27.9167C14.5567 27.9167 14.1327 27.7411 13.8202 27.4285C13.5076 27.116 13.332 26.6921 13.332 26.25C13.332 25.808 13.5076 25.3841 13.8202 25.0715C14.1327 24.759 14.5567 24.5834 14.9987 24.5834C15.4407 24.5834 15.8646 24.759 16.1772 25.0715C16.4898 25.3841 16.6654 25.808 16.6654 26.25ZM23.332 25C23.0005 25 22.6826 25.1317 22.4481 25.3662C22.2137 25.6006 22.082 25.9185 22.082 26.25C22.082 26.5816 22.2137 26.8995 22.4481 27.1339C22.6826 27.3683 23.0005 27.5 23.332 27.5H29.9987C30.3302 27.5 30.6482 27.3683 30.8826 27.1339C31.117 26.8995 31.2487 26.5816 31.2487 26.25C31.2487 25.9185 31.117 25.6006 30.8826 25.3662C30.6482 25.1317 30.3302 25 29.9987 25H23.332Z"
		fill="white" />
</svg>