<svg width="60" height="37" viewBox="0 0 60 37" fill="none" xmlns="http://www.w3.org/2000/svg">
	<path
		d="M50.935 19.3375H8.75C7.75544 19.3375 6.80161 18.9424 6.09835 18.2392C5.39509 17.5359 5 16.5821 5 15.5875V5.75C5 4.75544 5.39509 3.80161 6.09835 3.09835C6.80161 2.39509 7.75544 2 8.75 2H50.935C51.9296 2 52.8834 2.39509 53.5867 3.09835C54.2899 3.80161 54.685 4.75544 54.685 5.75V15.575C54.6866 16.0685 54.5909 16.5575 54.4031 17.0139C54.2154 17.4703 53.9395 17.8852 53.5911 18.2347C53.2427 18.5843 52.8287 18.8616 52.373 19.0509C51.9172 19.2401 51.4285 19.3375 50.935 19.3375ZM8.75 4.5C8.41848 4.5 8.10054 4.6317 7.86612 4.86612C7.6317 5.10054 7.5 5.41848 7.5 5.75V15.575C7.5 15.9065 7.6317 16.2245 7.86612 16.4589C8.10054 16.6933 8.41848 16.825 8.75 16.825H50.935C51.2665 16.825 51.5845 16.6933 51.8189 16.4589C52.0533 16.2245 52.185 15.9065 52.185 15.575V5.75C52.185 5.41848 52.0533 5.10054 51.8189 4.86612C51.5845 4.6317 51.2665 4.5 50.935 4.5H8.75Z"
		fill="white" />
	<path
		d="M13.75 11.9121C14.4404 11.9121 15 11.3525 15 10.6621C15 9.97175 14.4404 9.41211 13.75 9.41211C13.0596 9.41211 12.5 9.97175 12.5 10.6621C12.5 11.3525 13.0596 11.9121 13.75 11.9121Z"
		fill="white" />
	<path
		d="M18.75 11.9121C19.4404 11.9121 20 11.3525 20 10.6621C20 9.97175 19.4404 9.41211 18.75 9.41211C18.0596 9.41211 17.5 9.97175 17.5 10.6621C17.5 11.3525 18.0596 11.9121 18.75 11.9121Z"
		fill="white" />
	<path
		d="M33.4727 11.9121C33.1411 11.9121 32.8232 11.7804 32.5888 11.546C32.3544 11.3116 32.2227 10.9936 32.2227 10.6621C32.2227 10.3306 32.3544 10.0126 32.5888 9.77822C32.8232 9.5438 33.1411 9.41211 33.4727 9.41211H45.9727C46.3042 9.41211 46.6221 9.5438 46.8565 9.77822C47.091 10.0126 47.2227 10.3306 47.2227 10.6621C47.2227 10.9936 47.091 11.3116 46.8565 11.546C46.6221 11.7804 46.3042 11.9121 45.9727 11.9121H33.4727Z"
		fill="white" />
	<path
		d="M50.935 34.1754H8.75C7.75544 34.1754 6.80161 33.7803 6.09835 33.077C5.39509 32.3738 5 31.42 5 30.4254V20.5879C5 19.5933 5.39509 18.6395 6.09835 17.9362C6.80161 17.233 7.75544 16.8379 8.75 16.8379H50.935C51.9296 16.8379 52.8834 17.233 53.5867 17.9362C54.2899 18.6395 54.685 19.5933 54.685 20.5879V30.4129C54.6866 30.9064 54.5909 31.3954 54.4031 31.8518C54.2154 32.3082 53.9395 32.7231 53.5911 33.0726C53.2427 33.4222 52.8287 33.6995 52.373 33.8887C51.9172 34.078 51.4285 34.1754 50.935 34.1754ZM8.75 19.3379C8.41848 19.3379 8.10054 19.4696 7.86612 19.704C7.6317 19.9384 7.5 20.2564 7.5 20.5879V30.4129C7.5 30.7444 7.6317 31.0624 7.86612 31.2968C8.10054 31.5312 8.41848 31.6629 8.75 31.6629H50.935C51.2665 31.6629 51.5845 31.5312 51.8189 31.2968C52.0533 31.0624 52.185 30.7444 52.185 30.4129V20.5879C52.185 20.2564 52.0533 19.9384 51.8189 19.704C51.5845 19.4696 51.2665 19.3379 50.935 19.3379H8.75Z"
		fill="white" />
	<path
		d="M13.75 26.75C14.4404 26.75 15 26.1904 15 25.5C15 24.8096 14.4404 24.25 13.75 24.25C13.0596 24.25 12.5 24.8096 12.5 25.5C12.5 26.1904 13.0596 26.75 13.75 26.75Z"
		fill="white" />
	<path
		d="M18.75 26.75C19.4404 26.75 20 26.1904 20 25.5C20 24.8096 19.4404 24.25 18.75 24.25C18.0596 24.25 17.5 24.8096 17.5 25.5C17.5 26.1904 18.0596 26.75 18.75 26.75Z"
		fill="white" />
	<path
		d="M33.4727 26.75C33.1411 26.75 32.8232 26.6183 32.5888 26.3839C32.3544 26.1495 32.2227 25.8315 32.2227 25.5C32.2227 25.1685 32.3544 24.8505 32.5888 24.6161C32.8232 24.3817 33.1411 24.25 33.4727 24.25H45.9727C46.3042 24.25 46.6221 24.3817 46.8565 24.6161C47.091 24.8505 47.2227 25.1685 47.2227 25.5C47.2227 25.8315 47.091 26.1495 46.8565 26.3839C46.6221 26.6183 46.3042 26.75 45.9727 26.75H33.4727Z"
		fill="white" />
</svg>