<svg width="36" height="40" viewBox="0 0 36 40" fill="none" xmlns="http://www.w3.org/2000/svg">
	<path
		d="M27 40C24.4935 40 22.3672 39.1287 20.6212 37.386C18.8737 35.6404 18 33.5175 18 31.0173C18 28.5171 18.8737 26.3949 20.6212 24.6508C22.3687 22.9067 24.495 22.0346 27 22.0346C29.505 22.0346 31.632 22.9067 33.381 24.6508C35.13 26.3949 36.003 28.5171 36 31.0173C35.997 33.5175 35.124 35.6404 33.381 37.386C31.638 39.1317 29.511 40.003 27 40ZM0 17.7678V8.14956C0 7.38603 0.22125 6.69511 0.66375 6.0768C1.10625 5.45849 1.6725 5.00936 2.3625 4.7294L14.4787 0.238042C14.9167 0.0793471 15.3405 0 15.75 0C16.1595 0 16.584 0.0793471 17.0235 0.238042L29.1375 4.7294C29.8275 5.00936 30.3937 5.45849 30.8362 6.0768C31.2787 6.69511 31.5 7.38603 31.5 8.14956V16.1666C31.5 16.6876 31.2907 17.1158 30.8722 17.4512C30.4537 17.7865 29.9692 17.904 29.4187 17.8037C29.0317 17.7019 28.6312 17.6331 28.2172 17.5971C27.8017 17.5612 27.396 17.5432 27 17.5432C23.256 17.5432 20.07 18.8547 17.442 21.4776C14.814 24.1006 13.5 27.2805 13.5 31.0173C13.5 31.956 13.605 32.9096 13.815 33.8783C14.0235 34.8469 14.361 35.8395 14.8275 36.856C15.108 37.4519 15.027 37.9879 14.5845 38.4639C14.142 38.94 13.6222 39.0523 13.0252 38.8008C11.3047 38.0343 9.74475 37.0664 8.34525 35.8971C6.94725 34.7294 5.67 33.3333 4.5135 31.709C3.1035 29.7298 1.99875 27.5582 1.19925 25.1942C0.39975 22.8303 0 20.3548 0 17.7678ZM27 31.0173C27.9375 31.0173 28.7347 30.6902 29.3917 30.0359C30.0487 29.3817 30.3765 28.586 30.375 27.6488C30.3735 26.7116 30.0457 25.9166 29.3917 25.2639C28.7377 24.6111 27.9405 24.2832 27 24.2803C26.0595 24.2773 25.263 24.6051 24.6105 25.2639C23.958 25.9226 23.6295 26.7176 23.625 27.6488C23.6205 28.58 23.949 29.3757 24.6105 30.0359C25.272 30.6962 26.0685 31.0233 27 31.0173ZM27 37.7543C27.966 37.7543 28.8907 37.5694 29.7742 37.1996C30.6562 36.8298 31.416 36.2789 32.0535 35.5468C32.2125 35.3522 32.2657 35.1426 32.2132 34.918C32.1622 34.6964 32.0302 34.5243 31.8172 34.4015C31.0747 34.0078 30.2977 33.7196 29.4862 33.5369C28.6747 33.3543 27.846 33.263 27 33.263C26.154 33.263 25.3252 33.3543 24.5137 33.5369C23.7022 33.7196 22.926 34.0085 22.185 34.4038C21.9705 34.5235 21.8377 34.6957 21.7867 34.9203C21.7342 35.1433 21.7867 35.3529 21.9442 35.5491C22.5832 36.2797 23.3437 36.8298 24.2257 37.1996C25.1077 37.5694 26.0325 37.7543 27 37.7543Z"
		fill="white" />
</svg>