<svg width="19" height="16" viewBox="0 0 19 16" fill="none" xmlns="http://www.w3.org/2000/svg">
	<path
		d="M10.1944 12.4808L10.3592 12.5995L12.2191 14.016C13.0039 14.6174 13.7809 15.2188 14.5656 15.8044C15.0758 16.1921 15.7193 15.9784 15.8919 15.385C15.9155 15.2979 15.9312 15.2188 15.9469 15.1317C16.8572 10.9536 17.7702 6.77281 18.6858 2.58939L18.9683 1.2758C19.0153 1.09479 19.0099 0.904005 18.9529 0.725946C18.8959 0.547888 18.7896 0.389977 18.6465 0.27083C18.511 0.138064 18.3393 0.0490735 18.1534 0.0152421C17.9675 -0.0185893 17.7757 0.00427591 17.6028 0.0809137L14.7775 1.16502L0.494415 6.68049C0.156956 6.8071 0 7.01284 0 7.30562C0 7.59841 0.172654 7.80415 0.525808 7.92285L4.56746 9.30765C4.63715 9.33889 4.71381 9.35096 4.78963 9.34262C4.86545 9.33428 4.93772 9.30583 4.99909 9.26017L15.0444 3.06417C15.0762 3.03559 15.1136 3.01402 15.1542 3.00087C15.2221 2.99324 15.2907 3.00707 15.3504 3.04043C15.374 3.06417 15.3583 3.16705 15.3269 3.22244C15.2955 3.27783 15.2406 3.31739 15.1935 3.35696L12.3133 6.03952C10.7516 7.48763 9.18985 8.92782 7.63598 10.3838C7.55355 10.4551 7.4981 10.553 7.47902 10.6608C7.377 11.9348 7.29852 13.2088 7.20434 14.4749C7.18865 14.6569 7.1965 14.8231 7.377 14.9181C7.5575 15.013 7.71446 14.9102 7.84787 14.7756C8.42076 14.2059 9.00151 13.6441 9.56655 13.0664C9.76275 12.8686 9.94325 12.647 10.1316 12.4333L10.1944 12.4808Z"
		fill="white" />
</svg>