<svg width="24" height="24" viewBox="0 0 24 24" fill="none" xmlns="http://www.w3.org/2000/svg">
	<path
		d="M19.05 4.91002C18.1331 3.98413 17.0411 3.24999 15.8376 2.75039C14.634 2.25078 13.3431 1.99571 12.04 2.00002C6.58005 2.00002 2.13005 6.45002 2.13005 11.91C2.13005 13.66 2.59005 15.36 3.45005 16.86L2.05005 22L7.30005 20.62C8.75005 21.41 10.38 21.83 12.04 21.83C17.5 21.83 21.9501 17.38 21.9501 11.92C21.9501 9.27002 20.92 6.78002 19.05 4.91002ZM12.04 20.15C10.56 20.15 9.11005 19.75 7.84005 19L7.54005 18.82L4.42005 19.64L5.25005 16.6L5.05005 16.29C4.2276 14.9771 3.79097 13.4593 3.79005 11.91C3.79005 7.37002 7.49005 3.67002 12.03 3.67002C14.23 3.67002 16.3 4.53002 17.85 6.09002C18.6177 6.85389 19.226 7.76257 19.6397 8.76335C20.0534 9.76414 20.2642 10.8371 20.26 11.92C20.2801 16.46 16.58 20.15 12.04 20.15ZM16.56 13.99C16.31 13.87 15.09 13.27 14.87 13.18C14.64 13.1 14.48 13.06 14.31 13.3C14.14 13.55 13.67 14.11 13.53 14.27C13.39 14.44 13.24 14.46 12.99 14.33C12.74 14.21 11.94 13.94 11 13.1C10.26 12.44 9.77005 11.63 9.62005 11.38C9.48005 11.13 9.60005 11 9.73005 10.87C9.84005 10.76 9.98005 10.58 10.1 10.44C10.22 10.3 10.27 10.19 10.35 10.03C10.43 9.86002 10.39 9.72002 10.33 9.60002C10.27 9.48002 9.77005 8.26002 9.57005 7.76002C9.37005 7.28002 9.16005 7.34002 9.01005 7.33002H8.53005C8.36005 7.33002 8.10005 7.39002 7.87005 7.64002C7.65005 7.89002 7.01005 8.49002 7.01005 9.71002C7.01005 10.93 7.90005 12.11 8.02005 12.27C8.14005 12.44 9.77005 14.94 12.25 16.01C12.84 16.27 13.3 16.42 13.66 16.53C14.25 16.72 14.79 16.69 15.22 16.63C15.7 16.56 16.69 16.03 16.89 15.45C17.1 14.87 17.1 14.38 17.03 14.27C16.96 14.16 16.81 14.11 16.56 13.99Z"
		fill="white" />
</svg>