<svg width="1680" height="738" viewBox="0 0 1680 738" fill="none" xmlns="http://www.w3.org/2000/svg">
	<path d="M631 367L666 367" stroke="white" stroke-width="6" stroke-linecap="round" />
	<path d="M631 381L666 381" stroke="white" stroke-width="6" stroke-linecap="round" />
	<path d="M631 440L666 440" stroke="white" stroke-width="6" stroke-linecap="round" />
	<path d="M631 454L666 454" stroke="white" stroke-width="6" stroke-linecap="round" />
	<path d="M780 500C783.866 500 787 496.866 787 493L787 356C787 352.134 783.866 349 780 349L667 349L667 500L780 500Z"
		stroke="white" stroke-width="6" />
	<path d="M620 500C616.134 500 613 496.866 613 493L613 430C613 426.134 616.134 423 620 423L667 423L667 500L620 500Z"
		stroke="white" stroke-width="6" />
	<path d="M620 423C616.134 423 613 419.866 613 416L613 356C613 352.134 616.134 349 620 349L667 349L667 423L620 423Z"
		stroke="white" stroke-width="6" />
	<rect x="1140" y="219" width="121" height="116" rx="10" stroke="white" stroke-width="6" />
	<path fill-rule="evenodd" clip-rule="evenodd"
		d="M1228.26 294.26C1222.33 294.26 1217.52 299.068 1217.52 305C1217.52 310.932 1222.33 315.741 1228.26 315.741C1234.19 315.741 1239 310.932 1239 305C1239 299.068 1234.19 294.26 1228.26 294.26ZM1213 305C1213 296.573 1219.83 289.741 1228.26 289.741C1236.69 289.741 1243.52 296.573 1243.52 305C1243.52 313.428 1236.69 320.26 1228.26 320.26C1219.83 320.26 1213 313.428 1213 305Z"
		fill="white" />
	<path fill-rule="evenodd" clip-rule="evenodd"
		d="M1165.26 308.26C1163.19 308.26 1161.52 309.934 1161.52 312C1161.52 314.066 1163.19 315.741 1165.26 315.741C1167.33 315.741 1169 314.066 1169 312C1169 309.934 1167.33 308.26 1165.26 308.26ZM1157 312C1157 307.439 1160.7 303.741 1165.26 303.741C1169.82 303.741 1173.52 307.439 1173.52 312C1173.52 316.562 1169.82 320.26 1165.26 320.26C1160.7 320.26 1157 316.562 1157 312Z"
		fill="white" />
	<path fill-rule="evenodd" clip-rule="evenodd"
		d="M1157 239C1157 237.343 1158.34 236 1160 236L1241 236C1242.66 236 1244 237.343 1244 239C1244 240.657 1242.66 242 1241 242L1160 242C1158.34 242 1157 240.657 1157 239Z"
		fill="white" />
	<path fill-rule="evenodd" clip-rule="evenodd"
		d="M1157 253C1157 251.343 1158.34 250 1160 250L1241 250C1242.66 250 1244 251.343 1244 253C1244 254.657 1242.66 256 1241 256L1160 256C1158.34 256 1157 254.657 1157 253Z"
		fill="white" />
	<path fill-rule="evenodd" clip-rule="evenodd"
		d="M1157 267C1157 265.343 1158.34 264 1160 264L1241 264C1242.66 264 1244 265.343 1244 267C1244 268.657 1242.66 270 1241 270L1160 270C1158.34 270 1157 268.657 1157 267Z"
		fill="white" />
	<path fill-rule="evenodd" clip-rule="evenodd"
		d="M610.5 435.951L616.98 442.642C617.442 443.119 618.191 443.119 618.653 442.642C619.116 442.165 619.116 441.391 618.653 440.914L611.958 434L618.653 427.086C619.116 426.609 619.116 425.835 618.653 425.358C618.191 424.881 617.442 424.881 616.98 425.358L610.5 432.049L604.02 425.358C603.558 424.881 602.809 424.881 602.347 425.358C601.884 425.835 601.884 426.609 602.347 427.086L609.042 434L602.347 440.914C601.884 441.391 601.884 442.165 602.347 442.642C602.809 443.119 603.558 443.119 604.02 442.642L610.5 435.951Z"
		fill="#BF3524" />
	<path
		d="M688.743 471.94C689.394 471.368 690.378 471.386 691.009 472.01L691.126 472.138C691.637 472.756 691.657 473.661 691.173 474.301L691.062 474.434L684.846 481.136L691.347 487.562L691.464 487.69C691.975 488.308 691.995 489.213 691.511 489.853L691.4 489.986C690.796 490.637 689.814 490.697 689.139 490.154L689.008 490.038L682.752 483.852L676.77 490.304C676.167 490.955 675.184 491.016 674.509 490.472L674.378 490.356C673.714 489.699 673.69 488.617 674.326 487.932L680.54 481.23L674.04 474.804C673.376 474.147 673.352 473.065 673.988 472.38L674.113 472.258C674.764 471.685 675.748 471.704 676.38 472.328L682.636 478.513L688.617 472.062L688.743 471.94Z"
		fill="#BF3524" stroke="#BF3524" />
	<path
		d="M708.113 411.885C708.979 411.921 709.677 412.615 709.702 413.502L709.697 413.675C709.639 414.476 709.028 415.142 708.236 415.27L708.063 415.289L698.939 415.833L699.191 424.97L699.187 425.143C699.129 425.944 698.518 426.61 697.726 426.738L697.553 426.757C696.667 426.81 695.916 426.175 695.804 425.316L695.789 425.141L695.548 416.346L686.765 416.871C685.879 416.924 685.127 416.288 685.015 415.429L685.002 415.254C684.976 414.32 685.707 413.522 686.64 413.467L695.763 412.922L695.512 403.786C695.486 402.852 696.217 402.054 697.15 401.999L697.325 401.997C698.191 402.034 698.889 402.728 698.914 403.615L699.156 412.409L707.938 411.885L708.113 411.885Z"
		fill="#BF3524" stroke="#BF3524" />
	<rect x="3" y="-3" width="120" height="73" rx="7" transform="matrix(1 1.74846e-07 1.74846e-07 -1 943 209)"
		stroke="white" stroke-width="6" />
	<rect x="1.50001" y="-1.50001" width="123" height="3.00001" rx="1.50001"
		transform="matrix(1 1.74846e-07 1.74846e-07 -1 943 230)" stroke="white" stroke-width="3.00001" />
	<rect x="3" y="-3" width="52" height="92" rx="7" transform="matrix(1 1.74846e-07 1.74846e-07 -1 1100 494)"
		stroke="white" stroke-width="6" />
	<rect x="1.5" y="-1.5" width="27" height="3" rx="1.5" transform="matrix(1 1.74846e-07 1.74846e-07 -1 1114 483)"
		stroke="white" stroke-width="3" />
	<path
		d="M684.933 455.502C684.105 455.539 683.464 456.24 683.502 457.067C683.539 457.895 684.24 458.536 685.067 458.498L684.933 455.502ZM769.061 427.061C769.646 426.475 769.646 425.525 769.061 424.939L759.515 415.393C758.929 414.808 757.979 414.808 757.393 415.393C756.808 415.979 756.808 416.929 757.393 417.515L765.879 426L757.393 434.485C756.808 435.071 756.808 436.021 757.393 436.607C757.979 437.192 758.929 437.192 759.515 436.607L769.061 427.061ZM685.067 458.498C696.406 457.991 704.582 455.764 711.167 452.67C717.729 449.587 722.649 445.668 727.424 441.931C732.219 438.18 736.876 434.605 743.065 431.94C749.235 429.283 757.007 427.5 768 427.5L768 424.5C756.664 424.5 748.479 426.342 741.878 429.185C735.295 432.02 730.367 435.82 725.576 439.569C720.765 443.332 716.1 447.038 709.891 449.955C703.704 452.861 695.923 455.009 684.933 455.502L685.067 458.498Z"
		fill="#4BFF9C" />
	<path
		d="M213 162C216.08 162 219.401 163.702 222.795 167.639C226.181 171.566 229.366 177.424 232.102 184.924C237.563 199.898 241 220.784 241 244C241 267.216 237.563 288.102 232.102 303.076C229.366 310.576 226.181 316.434 222.795 320.361C219.401 324.298 216.08 326 213 326C209.92 326 206.599 324.298 203.205 320.361C199.819 316.434 196.634 310.576 193.898 303.076C188.437 288.102 185 267.216 185 244C185 220.784 188.437 199.898 193.898 184.924C196.634 177.424 199.819 171.566 203.205 167.639C206.599 163.702 209.92 162 213 162Z"
		stroke="white" stroke-width="6" />
	<path
		d="M213 162C258.287 162 295 198.713 295 244C295 289.287 258.287 326 213 326C167.713 326 131 289.287 131 244C131 198.713 167.713 162 213 162Z"
		stroke="white" stroke-width="6" />
	<line x1="128" y1="241" x2="298" y2="241" stroke="white" stroke-width="6" />
	<path d="M221 339.5C265 555 491 434 603.5 434" stroke="#BF3524" stroke-width="3" stroke-linecap="round"
		stroke-dasharray="10 10" />
	<path
		d="M261.371 328.008C261.099 327.527 260.489 327.358 260.008 327.629C259.527 327.901 259.358 328.511 259.629 328.992L261.371 328.008ZM724.417 389.909C724.919 389.679 725.139 389.086 724.909 388.583L721.16 380.401C720.93 379.899 720.337 379.679 719.835 379.909C719.333 380.139 719.112 380.732 719.342 381.234L722.674 388.507L715.401 391.84C714.899 392.07 714.679 392.663 714.909 393.165C715.139 393.667 715.732 393.888 716.234 393.658L724.417 389.909ZM259.629 328.992C284.123 372.327 314.054 393.615 348.077 402.134C382.03 410.636 419.951 406.392 460.369 398.921C541.35 383.952 632.481 356.06 723.652 389.937L724.348 388.063C632.519 353.94 540.65 382.048 460.006 396.954C419.612 404.421 382.064 408.583 348.563 400.194C315.133 391.823 285.627 370.923 261.371 328.008L259.629 328.992Z"
		fill="#4BFF9C" />
	<path d="M682 481.5C545.5 477 195 661.5 185 336.5" stroke="#BF3524" stroke-width="4" stroke-linecap="round" />
	<path d="M245 335.5C312 535.5 568.5 331.5 695 412" stroke="#BF3524" stroke-width="5" stroke-linecap="round" />
	<path
		d="M201.992 338.345C201.906 337.521 201.168 336.922 200.344 337.008C199.52 337.094 198.922 337.832 199.008 338.656L201.992 338.345ZM631.184 465.42C631.693 464.766 631.574 463.824 630.92 463.316L620.26 455.032C619.606 454.524 618.664 454.642 618.155 455.297C617.647 455.951 617.765 456.893 618.419 457.401L627.895 464.764L620.532 474.24C620.024 474.894 620.142 475.836 620.797 476.345C621.451 476.853 622.393 476.735 622.901 476.081L631.184 465.42ZM199.008 338.656C205.911 404.802 228.349 447.036 260.341 472.77C292.304 498.481 333.567 507.53 377.74 507.812C421.915 508.095 469.175 499.61 513.285 490.083C557.479 480.538 598.399 469.977 630.187 465.988L629.813 463.012C597.851 467.023 556.646 477.649 512.652 487.151C468.575 496.671 421.585 505.093 377.76 504.813C333.933 504.532 293.446 495.55 262.221 470.433C231.026 445.339 208.839 403.948 201.992 338.345L199.008 338.656Z"
		fill="#4BFF9C" />
	<path
		d="M802.984 409.5C802.156 409.509 801.491 410.187 801.5 411.016C801.509 411.844 802.187 412.509 803.016 412.5L802.984 409.5ZM1128.06 280.061C1128.65 279.475 1128.65 278.525 1128.06 277.939L1118.51 268.393C1117.93 267.808 1116.98 267.808 1116.39 268.393C1115.81 268.979 1115.81 269.929 1116.39 270.515L1124.88 279L1116.39 287.485C1115.81 288.071 1115.81 289.021 1116.39 289.607C1116.98 290.192 1117.93 290.192 1118.51 289.607L1128.06 280.061ZM803.016 412.5C935.761 411.122 993.85 378.03 1030.42 345.083C1039.53 336.874 1047.28 328.69 1054.49 321.071C1061.71 313.436 1068.36 306.394 1075.31 300.372C1089.15 288.393 1104.15 280.5 1127 280.5L1127 277.5C1103.28 277.5 1087.6 285.763 1073.35 298.104C1066.26 304.243 1059.51 311.402 1052.31 319.01C1045.1 326.634 1037.42 334.736 1028.41 342.854C992.487 375.22 935.148 408.128 802.984 409.5L803.016 412.5Z"
		fill="#4BFF9C" />
	<path
		d="M804 428.5C803.172 428.5 802.5 429.172 802.5 430C802.5 430.829 803.172 431.5 804 431.5L804 428.5ZM1087.08 448.625C1087.66 448.027 1087.64 447.078 1087.04 446.504L1077.31 437.145C1076.71 436.571 1075.76 436.589 1075.19 437.186C1074.61 437.783 1074.63 438.733 1075.23 439.307L1083.88 447.626L1075.56 456.275C1074.99 456.872 1075 457.821 1075.6 458.395C1076.2 458.97 1077.15 458.951 1077.72 458.354L1087.08 448.625ZM804 431.5C860.678 431.5 888.101 436.715 922.934 441.532C957.827 446.357 1000.01 450.757 1086.03 449.084L1085.97 446.085C1000.1 447.755 958.079 443.363 923.345 438.56C888.551 433.749 860.92 428.5 804 428.5L804 431.5Z"
		fill="#4BFF9C" />
	<path
		d="M803.877 390.505C803.052 390.573 802.437 391.297 802.505 392.123C802.573 392.948 803.297 393.563 804.123 393.495L803.877 390.505ZM1006.06 245.939C1005.47 245.354 1004.53 245.354 1003.94 245.939L994.393 255.485C993.808 256.071 993.808 257.021 994.393 257.607C994.979 258.192 995.929 258.192 996.515 257.607L1005 249.121L1013.49 257.607C1014.07 258.192 1015.02 258.192 1015.61 257.607C1016.19 257.021 1016.19 256.071 1015.61 255.485L1006.06 245.939ZM804.123 393.495C896.099 385.953 946.764 360.684 974.42 331.478C1002.09 302.251 1006.5 269.321 1006.5 247L1003.5 247C1003.5 268.92 999.18 300.964 972.241 329.415C945.284 357.885 895.449 382.996 803.877 390.505L804.123 393.495Z"
		fill="#4BFF9C" />
</svg>