<svg width="267" height="448" viewBox="0 0 267 448" fill="none" xmlns="http://www.w3.org/2000/svg">
	<path d="M180.947 103.947L199.191 103.947" stroke="white" stroke-width="3.12766" stroke-linecap="round" />
	<path d="M180.947 111.245L199.191 111.245" stroke="white" stroke-width="3.12766" stroke-linecap="round" />
	<path d="M180.947 142L199.191 142" stroke="white" stroke-width="3.12766" stroke-linecap="round" />
	<path d="M180.947 149.298L199.191 149.298" stroke="white" stroke-width="3.12766" stroke-linecap="round" />
	<path
		d="M258.617 173.277C260.632 173.277 262.266 171.643 262.266 169.628L262.266 98.2127C262.266 96.1975 260.632 94.5642 258.617 94.5642L199.712 94.5642L199.712 173.277L258.617 173.277Z"
		stroke="white" stroke-width="3.12766" />
	<path
		d="M175.213 173.277C173.198 173.277 171.564 171.643 171.564 169.628L171.564 136.787C171.564 134.772 173.198 133.138 175.213 133.138L199.713 133.138L199.713 173.277L175.213 173.277Z"
		stroke="white" stroke-width="3.12766" />
	<path
		d="M175.213 133.139C173.198 133.139 171.564 131.505 171.564 129.489L171.564 98.2129C171.564 96.1976 173.198 94.5635 175.213 94.5635L199.713 94.5635L199.713 133.139L175.213 133.139Z"
		stroke="white" stroke-width="3.12766" />
	<g clip-path="url(#clip0_6823_2274)">
		<rect x="112.28" y="392.824" width="55.1813" height="52.9011" rx="4.56044" stroke="white" stroke-width="2.73626" />
		<path fill-rule="evenodd" clip-rule="evenodd"
			d="M152.531 427.146C149.826 427.146 147.633 429.339 147.633 432.044C147.633 434.749 149.826 436.942 152.531 436.942C155.236 436.942 157.429 434.749 157.429 432.044C157.429 429.339 155.236 427.146 152.531 427.146ZM145.572 432.044C145.572 428.201 148.687 425.085 152.531 425.085C156.374 425.085 159.49 428.201 159.49 432.044C159.49 435.888 156.374 439.003 152.531 439.003C148.687 439.003 145.572 435.888 145.572 432.044Z"
			fill="white" />
		<path fill-rule="evenodd" clip-rule="evenodd"
			d="M123.8 433.531C122.858 433.531 122.094 434.295 122.094 435.237C122.094 436.179 122.858 436.942 123.8 436.942C124.742 436.942 125.506 436.179 125.506 435.237C125.506 434.295 124.742 433.531 123.8 433.531ZM120.033 435.237C120.033 433.156 121.72 431.47 123.8 431.47C125.88 431.47 127.567 433.156 127.567 435.237C127.567 437.317 125.88 439.003 123.8 439.003C121.72 439.003 120.033 437.317 120.033 435.237Z"
			fill="white" />
		<path fill-rule="evenodd" clip-rule="evenodd"
			d="M120.033 401.945C120.033 401.19 120.646 400.577 121.401 400.577L158.341 400.577C159.096 400.577 159.709 401.19 159.709 401.945C159.709 402.701 159.096 403.313 158.341 403.313L121.401 403.313C120.646 403.313 120.033 402.701 120.033 401.945Z"
			fill="white" />
		<path fill-rule="evenodd" clip-rule="evenodd"
			d="M120.033 408.33C120.033 407.574 120.646 406.962 121.401 406.962L158.341 406.962C159.096 406.962 159.709 407.574 159.709 408.33C159.709 409.085 159.096 409.698 158.341 409.698L121.401 409.698C120.646 409.698 120.033 409.085 120.033 408.33Z"
			fill="white" />
		<path fill-rule="evenodd" clip-rule="evenodd"
			d="M120.033 414.714C120.033 413.959 120.646 413.346 121.401 413.346L158.341 413.346C159.096 413.346 159.709 413.959 159.709 414.714C159.709 415.47 159.096 416.083 158.341 416.083L121.401 416.083C120.646 416.083 120.033 415.47 120.033 414.714Z"
			fill="white" />
	</g>
	<rect x="1.36813" y="-1.36813" width="54.7253" height="33.2912" rx="3.19231"
		transform="matrix(1 1.74846e-07 1.74846e-07 -1 209 380.291)" stroke="white" stroke-width="2.73626" />
	<rect x="0.684068" y="-0.684068" width="56.0934" height="1.36814" rx="0.684068"
		transform="matrix(1 1.74846e-07 1.74846e-07 -1 209 389.868)" stroke="white" stroke-width="1.36814" />
	<rect x="1.36813" y="-1.36813" width="23.7143" height="41.956" rx="3.19231"
		transform="matrix(1 1.74846e-07 1.74846e-07 -1 34 375.956)" stroke="white" stroke-width="2.73626" />
	<rect x="0.684067" y="-0.684066" width="12.3132" height="1.36813" rx="0.684066"
		transform="matrix(1 1.74846e-07 1.74846e-07 -1 40.3843 370.94)" stroke="white" stroke-width="1.36813" />
	<path
		d="M44 1.55273C45.5946 1.55273 47.3133 2.43403 49.0703 4.47168C50.8233 6.50465 52.4729 9.53698 53.8887 13.4189C56.7157 21.1705 58.4941 31.9825 58.4941 44C58.4941 56.0175 56.7157 66.8295 53.8887 74.5811C52.4729 78.463 50.8233 81.4954 49.0703 83.5283C47.3133 85.566 45.5946 86.4473 44 86.4473C42.4054 86.4472 40.6867 85.566 38.9297 83.5283C37.1768 81.4954 35.5281 78.4629 34.1123 74.5811C31.2853 66.8295 29.5059 56.0175 29.5059 44C29.5059 31.9825 31.2853 21.1705 34.1123 13.4189C35.5281 9.53713 37.1768 6.50461 38.9297 4.47168C40.6867 2.43404 42.4054 1.5528 44 1.55273Z"
		stroke="white" stroke-width="3.10588" />
	<path
		d="M44 1.55273C67.4429 1.55273 86.4473 20.5571 86.4473 44C86.4473 67.4429 67.4429 86.4473 44 86.4473C20.5571 86.4473 1.55273 67.4429 1.55273 44C1.55274 20.5571 20.5571 1.55274 44 1.55273Z"
		stroke="white" stroke-width="3.10588" />
	<line y1="42.4471" x2="88" y2="42.4471" stroke="white" stroke-width="3.10588" />
	<path
		d="M32.748 99.9446C32.7174 99.5316 32.3578 99.2215 31.9447 99.252C31.5316 99.2826 31.2215 99.6422 31.252 100.055L32.748 99.9446ZM188.53 165.1C188.823 164.807 188.823 164.332 188.53 164.039L183.757 159.266C183.464 158.973 182.99 158.973 182.697 159.266C182.404 159.559 182.404 160.034 182.697 160.327L186.939 164.569L182.697 168.812C182.404 169.105 182.404 169.58 182.697 169.873C182.99 170.166 183.464 170.166 183.757 169.873L188.53 165.1ZM32 100L31.252 100.055C33.7539 133.878 41.3991 154.988 52.4315 167.551C63.4976 180.152 77.8697 184.043 93.5135 183.672C109.123 183.301 126.092 178.683 142.447 174.193C158.857 169.687 174.623 165.319 188 165.319L188 164.569L188 163.819C174.377 163.819 158.392 168.259 142.05 172.746C125.653 177.248 108.869 181.806 93.4778 182.172C78.1201 182.537 64.2414 178.726 53.5586 166.561C42.8422 154.358 35.2402 133.638 32.748 99.9446L32 100Z"
		fill="#4BFF9C" />
	<path d="M222.5 164C168.394 161.67 26.9638 268.285 23 100" stroke="#BF3524" stroke-width="2" stroke-linecap="round" />
	<path
		d="M227.692 158.977C228.028 158.682 228.534 158.692 228.859 159.013L228.92 159.079C229.183 159.397 229.193 159.863 228.944 160.193L228.886 160.261L225.64 163.763L229.035 167.119L229.096 167.185C229.359 167.504 229.369 167.97 229.12 168.299L229.062 168.368C228.751 168.703 228.246 168.735 227.898 168.455L227.831 168.395L224.561 165.162L221.436 168.534C221.125 168.869 220.62 168.9 220.272 168.621L220.205 168.561C219.863 168.222 219.85 167.665 220.177 167.312L223.423 163.811L220.028 160.454C219.686 160.116 219.674 159.558 220.001 159.205L220.066 159.142C220.401 158.848 220.907 158.857 221.232 159.179L224.502 162.41L227.627 159.04L227.692 158.977Z"
		fill="#BF3524" stroke="#BF3524" stroke-width="0.5" />
	<path
		d="M219.046 137.163C219.492 137.182 219.851 137.539 219.863 137.996L219.862 138.086C219.831 138.498 219.517 138.841 219.109 138.907L219.019 138.917L214.254 139.201L214.385 143.974L214.383 144.063C214.353 144.475 214.038 144.819 213.63 144.885L213.541 144.894C213.085 144.922 212.698 144.595 212.641 144.153L212.633 144.062L212.507 139.467L207.918 139.741C207.461 139.768 207.075 139.441 207.017 138.999L207.01 138.909C206.997 138.428 207.373 138.016 207.854 137.988L212.619 137.703L212.488 132.931C212.475 132.45 212.852 132.039 213.332 132.01L213.423 132.01C213.868 132.029 214.227 132.385 214.24 132.842L214.367 137.437L218.955 137.164L219.046 137.163Z"
		fill="#BF3524" stroke="#BF3524" stroke-width="0.5" />
	<path
		d="M176.046 150.163C176.492 150.182 176.851 150.539 176.863 150.996L176.862 151.086C176.831 151.498 176.517 151.841 176.109 151.907L176.019 151.917L171.254 152.201L171.385 156.974L171.383 157.063C171.353 157.475 171.038 157.819 170.63 157.885L170.541 157.894C170.085 157.922 169.698 157.595 169.641 157.153L169.633 157.062L169.507 152.467L164.918 152.741C164.461 152.768 164.075 152.441 164.017 151.999L164.01 151.909C163.997 151.428 164.373 151.016 164.854 150.988L169.619 150.703L169.488 145.931C169.475 145.45 169.852 145.039 170.332 145.01L170.423 145.01C170.868 145.029 171.227 145.385 171.24 145.842L171.367 150.437L175.955 150.164L176.046 150.163Z"
		fill="#BF3524" stroke="#BF3524" stroke-width="0.5" />
	<path d="M44.5 100C62 224 123 139.5 165 149.5" stroke="#BF3524" stroke-width="1.5" stroke-linecap="round"
		stroke-dasharray="5.18 5.18" />
	<path
		d="M67.474 95.044C67.386 94.7822 67.1025 94.6413 66.8407 94.7293C66.579 94.8172 66.4381 95.1008 66.526 95.3625L67.474 95.044ZM216.112 126.359C216.381 126.297 216.549 126.029 216.487 125.759L215.475 121.375C215.413 121.106 215.145 120.938 214.876 121C214.607 121.062 214.439 121.33 214.501 121.6L215.4 125.497L211.503 126.396C211.234 126.459 211.066 126.727 211.128 126.996C211.19 127.265 211.459 127.433 211.728 127.371L216.112 126.359ZM67 95.2032L66.526 95.3625C74.084 117.854 83.6994 128.942 94.8595 133.338C105.993 137.724 118.52 135.385 131.73 131.399C144.997 127.395 158.943 121.738 173.171 119.269C187.36 116.806 201.725 117.539 215.735 126.296L216 125.872L216.265 125.448C201.981 116.52 187.344 115.793 173 118.283C158.696 120.766 144.582 126.476 131.441 130.441C118.243 134.424 106.014 136.657 95.226 132.407C84.464 128.168 74.9905 117.413 67.474 95.044L67 95.2032Z"
		fill="#4BFF9C" />
	<path d="M58 97.2032C78.8648 202.833 173.606 94.7651 213 137.281" stroke="#BF3524" stroke-width="2.5"
		stroke-linecap="round" />
	<path
		d="M237 183C237 182.448 237.448 182 238 182C238.552 182 239 182.448 239 183L237 183ZM238.698 340.717C238.302 341.102 237.669 341.093 237.283 340.697L231.007 334.247C230.622 333.852 230.63 333.218 231.026 332.833C231.422 332.448 232.055 332.457 232.44 332.853L238.019 338.586L243.753 333.007C244.149 332.621 244.782 332.63 245.167 333.026C245.552 333.422 245.543 334.055 245.148 334.44L238.698 340.717ZM238 183L239 183C239 246.206 240.304 244.312 239 340.014L238 340L237 339.986C238.304 244.289 237 246.283 237 183L238 183Z"
		fill="#4BFF9C" />
	<path
		d="M223.5 183C223.5 182.448 223.948 182 224.5 182C225.052 182 225.5 182.448 225.5 183L223.5 183ZM138.207 384.707C137.817 385.098 137.183 385.098 136.793 384.707L130.429 378.343C130.038 377.953 130.038 377.319 130.429 376.929C130.819 376.538 131.453 376.538 131.843 376.929L137.5 382.586L143.157 376.929C143.547 376.538 144.181 376.538 144.571 376.929C144.962 377.319 144.962 377.953 144.571 378.343L138.207 384.707ZM224.5 183L225.5 183C225.5 295.549 203.757 336.354 181.62 353.847C170.59 362.564 159.501 365.428 151.451 368.504C147.388 370.057 144.174 371.632 141.96 373.943C139.793 376.206 138.5 379.269 138.5 384L137.5 384L136.5 384C136.5 378.856 137.926 375.263 140.516 372.559C143.06 369.903 146.643 368.201 150.737 366.636C158.999 363.479 169.66 360.749 180.38 352.278C201.743 335.396 223.5 295.451 223.5 183L224.5 183Z"
		fill="#4BFF9C" />
	<path
		d="M211 183C211 182.448 211.448 182 212 182C212.552 182 213 182.448 213 183L211 183ZM69.323 356.736C68.9166 356.362 68.8902 355.729 69.2641 355.323L75.3576 348.7C75.7316 348.293 76.3642 348.267 76.7706 348.641C77.1771 349.015 77.2034 349.647 76.8295 350.054L71.4131 355.941L77.3005 361.358C77.7069 361.732 77.7333 362.364 77.3594 362.771C76.9854 363.177 76.3528 363.203 75.9464 362.829L69.323 356.736ZM212 183L213 183C213 272.004 198.524 314.827 173.135 335.71C160.438 346.153 145.111 351.023 127.767 353.513C110.451 355.999 90.9876 356.126 70.0417 356.999L70.0001 356L69.9584 355.001C91.0125 354.124 110.299 354.001 127.483 351.534C144.639 349.07 159.562 344.285 171.865 334.165C196.476 313.923 211 271.996 211 183L212 183Z"
		fill="#4BFF9C" />
	<defs>
		<clipPath id="clip0_6823_2274">
			<rect width="59.2857" height="56.5494" fill="white" transform="translate(110 391)" />
		</clipPath>
	</defs>
</svg>